<svg width="24" height="24" viewBox="0 0 24 24" fill="none" xmlns="http://www.w3.org/2000/svg">
<path d="M9.72719 9H4.27268C3.57089 9 3 8.41127 3 7.68742V4.31244C3 3.58873 3.57089 3 4.27268 3H9.72719C10.4291 3 11 3.58873 11 4.31244V7.68742C11 8.41127 10.4291 9 9.72719 9ZM4.27268 4.12499C4.1724 4.12499 4.0909 4.20904 4.0909 4.31244V7.68742C4.0909 7.79096 4.1724 7.87501 4.27268 7.87501H9.72719C9.8276 7.87501 9.9091 7.79096 9.9091 7.68742V4.31244C9.9091 4.31244 9.8276 4.12499 9.72719 4.12499H4.27268Z" fill="#0077E5"/>
<path d="M9.72719 21H4.27268C3.57089 21 3 20.3832 3 19.6251V11.3751C3 10.6168 3.57089 10 4.27268 10H9.72719C10.4291 10 11 10.6168 11 11.3751V19.6251C11 20.3832 10.4291 21 9.72719 21ZM4.27268 11.1786C4.1724 11.1786 4.0909 11.2666 4.0909 11.3751V19.6251C4.0909 19.7334 4.1724 19.8214 4.27268 19.8214H9.72719C9.8276 19.8214 9.9091 19.7334 9.9091 19.6251V11.3751C9.9091 11.2666 9.8276 11.1786 9.72719 11.1786H4.27268Z" fill="#0077E5"/>
<path d="M19.7273 21H14.2728C13.5709 21 13 20.4113 13 19.6876V16.3126C13 15.5887 13.5709 15 14.2728 15H19.7273C20.4291 15 21 15.5887 21 16.3126V19.6876C21 20.4113 20.4291 21 19.7273 21ZM14.2728 16.125C14.1724 16.125 14.0909 16.209 14.0909 16.3126V19.6876C14.0909 19.791 14.1724 19.875 14.2728 19.875H19.7273C19.8276 19.875 19.9091 19.791 19.9091 19.6876V16.3126C19.9091 16.209 19.8276 16.125 19.7273 16.125H14.2728Z" fill="#0077E5"/>
<path d="M19.7273 14H14.2728C13.5709 14 13 13.3832 13 12.6249V4.37495C13 3.61676 13.5709 3 14.2728 3H19.7273C20.4291 3 21 3.61676 21 4.37495V12.6249C21 13.3832 20.4291 14 19.7273 14ZM14.2728 4.17857C14.1724 4.17857 14.0909 4.26661 14.0909 4.37495V12.6249C14.0909 12.7334 14.1724 12.8214 14.2728 12.8214H19.7273C19.8276 12.8214 19.9091 12.7334 19.9091 12.6249V4.37495C19.9091 4.26661 19.8276 4.17857 19.7273 4.17857H14.2728Z" fill="#0077E5"/>
</svg>
