<svg width="24" height="24" viewBox="0 0 24 24" fill="none" xmlns="http://www.w3.org/2000/svg">
<path d="M21.6607 16.2143H17.9286V5.69643C17.928 5.24667 17.7491 4.81548 17.4311 4.49746C17.1131 4.17943 16.6819 4.00053 16.2321 4H4.69643C4.24667 4.00053 3.81548 4.17943 3.49746 4.49746C3.17943 4.81548 3.00053 5.24667 3 5.69643V11.125C3 11.215 3.03575 11.3013 3.09937 11.3649C3.163 11.4285 3.2493 11.4643 3.33929 11.4643H5.71429V16.5536C5.71541 17.5431 6.10898 18.4917 6.80864 19.1914C7.50831 19.891 8.45695 20.2846 9.44643 20.2857H18.2679C19.2573 20.2846 20.206 19.891 20.9056 19.1914C21.6053 18.4917 21.9989 17.5431 22 16.5536C22 16.4636 21.9643 16.3773 21.9006 16.3137C21.837 16.25 21.7507 16.2143 21.6607 16.2143ZM3.67857 5.69643C3.67857 5.42648 3.78581 5.16758 3.97669 4.97669C4.16758 4.78581 4.42648 4.67857 4.69643 4.67857C4.96638 4.67857 5.22528 4.78581 5.41616 4.97669C5.60705 5.16758 5.71429 5.42648 5.71429 5.69643V10.7857H3.67857V5.69643ZM6.39286 16.5536V5.69643C6.39156 5.32817 6.2693 4.97055 6.04489 4.67857H16.2321C16.502 4.67887 16.7607 4.7862 16.9515 4.97702C17.1424 5.16784 17.2497 5.42657 17.25 5.69643V16.2143H12.8393C12.7493 16.2143 12.663 16.25 12.5994 16.3137C12.5357 16.3773 12.5 16.4636 12.5 16.5536C12.5 17.3634 12.1783 18.1401 11.6056 18.7128C11.033 19.2854 10.2563 19.6071 9.44643 19.6071C8.63657 19.6071 7.85988 19.2854 7.28723 18.7128C6.71457 18.1401 6.39286 17.3634 6.39286 16.5536ZM18.2679 19.6071H11.5902C12.0336 19.296 12.4041 18.892 12.6757 18.4233C12.9474 17.9546 13.1138 17.4323 13.1633 16.8929H21.3025C21.2182 17.639 20.8623 18.3279 20.3026 18.8285C19.743 19.3291 19.0187 19.6062 18.2679 19.6071Z" fill="#0077E5"/>
<path d="M7.74994 9.44549C7.65836 9.44908 7.57175 9.48814 7.50844 9.55442C7.44512 9.6207 7.41006 9.709 7.41066 9.80066C7.41139 10.0981 7.51218 10.3866 7.69681 10.6198C7.88144 10.853 8.13917 11.0173 8.42852 11.0863V11.4651C8.42852 11.5551 8.46426 11.6414 8.52789 11.705C8.59152 11.7687 8.67782 11.8044 8.7678 11.8044C8.85779 11.8044 8.94408 11.7687 9.00771 11.705C9.07134 11.6414 9.10709 11.5551 9.10709 11.4651V11.0863C9.3872 11.0199 9.63802 10.864 9.82149 10.6422C10.005 10.4203 10.1111 10.1447 10.1237 9.85713C10.1363 9.56954 10.0548 9.28568 9.89147 9.04863C9.72815 8.81157 9.49196 8.63426 9.21875 8.5436L8.53156 8.31431C8.3859 8.26581 8.26226 8.16706 8.18275 8.03573C8.10325 7.9044 8.07307 7.74907 8.09763 7.59753C8.12218 7.44598 8.19985 7.30812 8.31675 7.20861C8.43366 7.1091 8.58215 7.05444 8.73567 7.05441H8.79993C8.88725 7.05547 8.97348 7.07398 9.05354 7.10886C9.13359 7.14374 9.20587 7.19429 9.2661 7.25751C9.32634 7.32074 9.37331 7.39538 9.40427 7.47703C9.43523 7.55869 9.44955 7.64571 9.44637 7.73298C9.44667 7.77671 9.45577 7.81993 9.47313 7.86006C9.49049 7.9002 9.51576 7.93643 9.54742 7.96659C9.57908 7.99675 9.6165 8.02023 9.65743 8.03562C9.69836 8.05101 9.74197 8.05801 9.78566 8.05618C9.87725 8.05259 9.96385 8.01353 10.0272 7.94725C10.0905 7.88098 10.1255 7.79268 10.1249 7.70102C10.1242 7.40358 10.0234 7.11503 9.83879 6.88183C9.65416 6.64863 9.39643 6.48434 9.10709 6.4154V6.03655C9.10709 5.94657 9.07134 5.86027 9.00771 5.79664C8.94408 5.73301 8.85779 5.69727 8.7678 5.69727C8.67782 5.69727 8.59152 5.73301 8.52789 5.79664C8.46426 5.86027 8.42852 5.94657 8.42852 6.03655V6.4154C8.1484 6.48176 7.89758 6.63768 7.71411 6.85951C7.53065 7.08133 7.42455 7.35695 7.41192 7.64454C7.39929 7.93213 7.48082 8.21599 7.64413 8.45305C7.80745 8.6901 8.04364 8.86741 8.31686 8.95807L9.00405 9.18736C9.1497 9.23586 9.27334 9.33462 9.35285 9.46594C9.43235 9.59727 9.46253 9.75261 9.43798 9.90415C9.41343 10.0557 9.33575 10.1936 9.21885 10.2931C9.10195 10.3926 8.95345 10.4472 8.79993 10.4473H8.73567C8.56426 10.4471 8.39993 10.3789 8.27874 10.2576C8.15755 10.1364 8.08939 9.97207 8.08923 9.80066V9.76869C8.08893 9.72497 8.07983 9.68175 8.06247 9.64161C8.04511 9.60148 8.01984 9.56525 7.98818 9.53509C7.95652 9.50492 7.91911 9.48145 7.87818 9.46605C7.83725 9.45066 7.79364 9.44367 7.74994 9.44549Z" fill="#0077E5"/>
<path d="M11.4821 7.95787H15.8928C15.9828 7.95787 16.0691 7.92212 16.1327 7.85849C16.1964 7.79487 16.2321 7.70857 16.2321 7.61858C16.2321 7.5286 16.1964 7.4423 16.1327 7.37867C16.0691 7.31504 15.9828 7.2793 15.8928 7.2793H11.4821C11.3921 7.2793 11.3058 7.31504 11.2422 7.37867C11.1786 7.4423 11.1428 7.5286 11.1428 7.61858C11.1428 7.70857 11.1786 7.79487 11.2422 7.85849C11.3058 7.92212 11.3921 7.95787 11.4821 7.95787Z" fill="#0077E5"/>
<path d="M11.4821 10.6786H15.8928C15.9828 10.6786 16.0691 10.6428 16.1327 10.5792C16.1964 10.5156 16.2321 10.4293 16.2321 10.3393C16.2321 10.2493 16.1964 10.163 16.1327 10.0994C16.0691 10.0357 15.9828 10 15.8928 10H11.4821C11.3921 10 11.3058 10.0357 11.2422 10.0994C11.1786 10.163 11.1428 10.2493 11.1428 10.3393C11.1428 10.4293 11.1786 10.5156 11.2422 10.5792C11.3058 10.6428 11.3921 10.6786 11.4821 10.6786Z" fill="#0077E5"/>
<path d="M7.74993 14.536H15.8928C15.9828 14.536 16.0691 14.5002 16.1327 14.4366C16.1963 14.373 16.2321 14.2867 16.2321 14.1967C16.2321 14.1067 16.1963 14.0204 16.1327 13.9568C16.0691 13.8932 15.9828 13.8574 15.8928 13.8574H7.74993C7.65995 13.8574 7.57365 13.8932 7.51002 13.9568C7.44639 14.0204 7.41064 14.1067 7.41064 14.1967C7.41064 14.2867 7.44639 14.373 7.51002 14.4366C7.57365 14.5002 7.65995 14.536 7.74993 14.536Z" fill="#0077E5"/>
</svg>
