<svg width="24" height="24" viewBox="0 0 24 24" fill="none" xmlns="http://www.w3.org/2000/svg">
<path d="M21 18.3636C21 18.5324 20.9368 18.6943 20.8243 18.8136C20.7117 18.933 20.5591 19 20.4 19H3.6C3.44087 19 3.28826 18.933 3.17574 18.8136C3.06321 18.6943 3 18.5324 3 18.3636C3 18.1949 3.06321 18.033 3.17574 17.9137C3.28826 17.7943 3.44087 17.7273 3.6 17.7273H4.2V10.0909C4.2 9.75336 4.32643 9.42964 4.55147 9.19096C4.77652 8.95227 5.08174 8.81818 5.4 8.81818H8.4V6.27273C8.4 5.93518 8.52643 5.61146 8.75147 5.37277C8.97652 5.13409 9.28174 5 9.6 5H14.4C14.7183 5 15.0235 5.13409 15.2485 5.37277C15.4736 5.61146 15.6 5.93518 15.6 6.27273V12H18.6C18.9183 12 19.2235 12.1341 19.4485 12.3728C19.6736 12.6115 19.8 12.9352 19.8 13.2727V17.7273H20.4C20.5591 17.7273 20.7117 17.7943 20.8243 17.9137C20.9368 18.033 21 18.1949 21 18.3636ZM15.6 13.2727V17.7273H18.6V13.2727H15.6ZM9.6 17.7273H14.4V6.27273H9.6V17.7273ZM5.4 17.7273H8.4V10.0909H5.4V17.7273Z" fill="#0077E5"/>
</svg>
