<svg width="24" height="24" viewBox="0 0 24 24" fill="none" xmlns="http://www.w3.org/2000/svg">
<path d="M19.9194 18.4929L19.0262 7.23836C18.9705 6.51328 18.3573 5.94527 17.6301 5.94527H15.866V5.86598C15.866 3.73426 14.1317 2 12 2C9.86827 2 8.13401 3.73426 8.13401 5.86598V5.94527H6.36987C5.64264 5.94527 5.0294 6.51324 4.97393 7.23684L4.0805 18.4944C4.01135 19.3958 4.32405 20.2932 4.93835 20.9564C5.55264 21.6196 6.42346 22 7.32749 22H16.6724C17.5764 22 18.4473 21.6196 19.0616 20.9564C19.6759 20.2931 19.9886 19.3958 19.9194 18.4929ZM9.3055 5.86598C9.3055 4.38023 10.5143 3.17148 12 3.17148C13.4857 3.17148 14.6945 4.38027 14.6945 5.86598V5.94527H9.3055V5.86598ZM18.2021 20.1604C17.803 20.5912 17.2598 20.8285 16.6724 20.8285H7.32753C6.74018 20.8285 6.19698 20.5912 5.79784 20.1604C5.39874 19.7295 5.20366 19.1696 5.2485 18.5855L6.14186 7.32793C6.15092 7.20949 6.25108 7.11676 6.36987 7.11676H8.13401V8.55953C8.13401 8.88301 8.39628 9.14527 8.71975 9.14527C9.04323 9.14527 9.3055 8.88301 9.3055 8.55953V7.11676H14.6945V8.55953C14.6945 8.88301 14.9567 9.14527 15.2802 9.14527C15.6037 9.14527 15.866 8.88301 15.866 8.55953V7.11676H17.6301C17.7489 7.11676 17.849 7.20953 17.8583 7.32949L18.7514 18.584C18.7964 19.1696 18.6012 19.7294 18.2021 20.1604Z" fill="#0077E5"/>
<path d="M14.6388 11.9333C14.4102 11.7045 14.0393 11.7045 13.8105 11.9333L11.1951 14.5487L10.1894 13.543C9.96066 13.3143 9.58977 13.3143 9.36102 13.543C9.13227 13.7718 9.13227 14.1427 9.36102 14.3714L10.7809 15.7913C10.8953 15.9057 11.0452 15.9629 11.195 15.9629C11.3449 15.9629 11.4948 15.9057 11.6092 15.7913L14.6388 12.7617C14.8676 12.5329 14.8676 12.162 14.6388 11.9333Z" fill="#0077E5"/>
</svg>
