<svg width="24" height="24" viewBox="0 0 24 24" fill="none" xmlns="http://www.w3.org/2000/svg">
<path d="M12 20.1653C11.9145 20.1653 11.8297 20.1469 11.7505 20.1095C7.65008 18.171 5 13.9874 5 9.45115V6.16535C5 5.90215 5.17605 5.67173 5.43009 5.60255L11.8468 3.85255C11.947 3.82519 12.053 3.82519 12.1532 3.85255L18.5699 5.60255C18.8239 5.67179 19 5.90221 19 6.16535V9.45115C19 13.9874 16.3499 18.1709 12.2495 20.1095C12.1703 20.1469 12.0855 20.1653 12 20.1653ZM6.16667 6.61084V9.45115C6.16667 13.4459 8.44703 17.137 12 18.9329C15.553 17.137 17.8333 13.4459 17.8333 9.45115V6.61084L12 5.02003L6.16667 6.61084Z" fill="#0077E5"/>
<path d="M10.8331 14.3334C10.6839 14.3334 10.5346 14.2764 10.4207 14.1624L8.08739 11.8291C7.85954 11.6013 7.85954 11.2321 8.08739 11.0042C8.31524 10.7763 8.68437 10.7764 8.91228 11.0042L10.8332 12.9251L15.0874 8.67089C15.3153 8.44304 15.6844 8.44304 15.9123 8.67089C16.1402 8.89874 16.1402 9.26787 15.9123 9.49578L11.2457 14.1624C11.1317 14.2764 10.9824 14.3334 10.8331 14.3334Z" fill="#0077E5"/>
</svg>
