<svg width="24" height="24" viewBox="0 0 24 24" fill="none" xmlns="http://www.w3.org/2000/svg">
<path d="M12 20.1673C11.9145 20.1673 11.8297 20.1488 11.7505 20.1115C7.65008 18.1729 5 13.9893 5 9.4531V6.1673C5 5.9041 5.17605 5.67369 5.43009 5.6045L11.8468 3.8545C11.947 3.82714 12.053 3.82714 12.1532 3.8545L18.5699 5.6045C18.8239 5.67374 19 5.90416 19 6.1673V9.4531C19 13.9893 16.3499 18.1729 12.2495 20.1115C12.1703 20.1488 12.0855 20.1673 12 20.1673ZM6.16667 6.61279V9.4531C6.16667 13.4478 8.44703 17.139 12 18.9348C15.553 17.139 17.8333 13.4479 17.8333 9.4531V6.61279L12 5.02199L6.16667 6.61279Z" fill="#6E8091"/>
<path d="M10.8331 14.3334C10.6839 14.3334 10.5346 14.2764 10.4207 14.1624L8.08739 11.8291C7.85954 11.6013 7.85954 11.2321 8.08739 11.0042C8.31524 10.7763 8.68437 10.7764 8.91228 11.0042L10.8332 12.9251L15.0874 8.67089C15.3153 8.44304 15.6844 8.44304 15.9123 8.67089C16.1402 8.89874 16.1402 9.26787 15.9123 9.49578L11.2457 14.1624C11.1317 14.2764 10.9824 14.3334 10.8331 14.3334Z" fill="#6E8091"/>
</svg>
