<svg width="24" height="24" viewBox="0 0 24 24" fill="none" xmlns="http://www.w3.org/2000/svg">
<path d="M8.59702 7.9806L4.32663 15.7645C3.98574 16.3859 3.90718 17.1028 4.10552 17.7832C4.30386 18.4637 4.75531 19.0261 5.37664 19.367L9.8013 21.7944C10.2052 22.016 10.642 22.1211 11.0731 22.1211C11.8165 22.1211 12.5419 21.8073 13.0512 21.2401L15.1722 21.3357C15.2131 21.338 15.2537 21.3392 15.2943 21.3392C15.7989 21.3392 16.2799 21.1566 16.6599 20.8183C17.0705 20.4528 17.3142 19.9492 17.346 19.401L17.7357 12.8409C18.0216 12.2491 18.079 11.5594 17.8911 10.9277L16.8792 7.52598C16.6257 6.67382 15.9736 6.04202 15.186 5.77302C15.1851 5.76368 15.1843 5.75439 15.1826 5.745C15.1772 5.7138 15.0476 4.97177 14.7753 4.1536C14.3862 2.98439 13.9021 2.25782 13.3364 1.99424C13.0692 1.86978 12.6448 1.78323 12.1392 2.078C11.7317 2.31554 11.4663 2.68607 11.3503 3.17934C11.1524 4.02162 11.4446 5.1569 11.8731 6.2263L10.1949 6.70545C9.51807 6.89874 8.93561 7.36345 8.59702 7.9806ZM16.5421 19.3537C16.5227 19.6878 16.3744 19.9943 16.1245 20.2167C15.8746 20.4392 15.5534 20.5509 15.2137 20.5313L13.7031 20.4632L16.8303 14.502L16.5421 19.3537ZM12.1343 3.36356C12.1986 3.09021 12.3328 2.8973 12.5447 2.7738C12.7643 2.64575 12.9013 2.68016 12.9961 2.72419C13.3368 2.88285 13.7057 3.49323 14.0081 4.39887C14.171 4.88672 14.2809 5.35486 14.3392 5.63047C14.097 5.62961 13.8512 5.66156 13.6076 5.73103L12.6504 6.00433C12.2462 5.02106 11.9778 4.02957 12.1343 3.36356ZM12.1963 6.97155C12.3822 7.3714 12.5761 7.74784 12.7568 8.07928C12.6435 8.18839 12.5446 8.31612 12.465 8.46109C12.2598 8.83501 12.2126 9.26638 12.3319 9.67584C12.4513 10.0853 12.7229 10.4238 13.0968 10.6289C13.3399 10.7622 13.6027 10.8254 13.8621 10.8254C14.4266 10.8254 14.9745 10.5259 15.2646 9.99703C15.6881 9.22514 15.4047 8.25266 14.6328 7.82918C14.2599 7.62461 13.8404 7.58542 13.4585 7.68609C13.2993 7.3932 13.1361 7.07604 12.9802 6.74765L13.8285 6.50544C14.7978 6.22882 15.8197 6.78959 16.1071 7.75552L17.1191 11.1573C17.2372 11.5544 17.2156 11.9842 17.064 12.3673C17.0335 12.3967 17.007 12.431 16.9865 12.4701L16.1585 14.0485L12.6976 20.3569C12.2074 21.2503 11.0818 21.5782 10.1886 21.0882L5.76393 18.6608C5.33117 18.4233 5.0168 18.0316 4.8787 17.5577C4.7406 17.0839 4.79521 16.5845 5.03264 16.1518L9.30303 8.36783C9.53885 7.93796 9.94444 7.61431 10.4159 7.4797L12.1963 6.97155ZM13.1711 8.84849C13.1751 8.84129 13.1797 8.83463 13.1839 8.8276C13.3732 9.14455 13.5053 9.34713 13.5283 9.38219C13.6057 9.49989 13.7342 9.56378 13.8652 9.56378C13.9411 9.56378 14.0179 9.54236 14.086 9.49758C14.2719 9.37543 14.3235 9.1257 14.2013 8.93987C14.1118 8.80371 14.0049 8.6335 13.8877 8.43811C14.0115 8.44155 14.1337 8.47403 14.2454 8.5353C14.6279 8.74518 14.7684 9.22718 14.5586 9.60969C14.3487 9.99214 13.8669 10.1327 13.4842 9.92282C13.2989 9.82113 13.1643 9.65339 13.1051 9.45049C13.0459 9.24758 13.0694 9.03378 13.1711 8.84849Z" fill="#6E8091"/>
<path d="M9.25946 13.4998C9.07749 13.8315 9.03556 14.2142 9.14144 14.5773C9.24732 14.9405 9.48824 15.2407 9.8199 15.4226L10.7404 15.9276C11.0357 16.0897 11.1442 16.4616 10.9822 16.7569C10.9037 16.9 10.7742 17.004 10.6176 17.0496C10.4607 17.0953 10.2958 17.0772 10.1528 16.9987L9.69286 16.7464L9.6926 16.7462L9.69233 16.746L8.34378 16.0062C8.14882 15.8992 7.90404 15.9705 7.79703 16.1656C7.69007 16.3606 7.76138 16.6053 7.95639 16.7123L8.95217 17.2586L8.64473 17.819C8.53777 18.0141 8.60908 18.2588 8.80409 18.3658C8.86557 18.3995 8.93193 18.4155 8.99744 18.4155C9.13967 18.4155 9.27761 18.34 9.35084 18.2064L9.65834 17.646L9.76556 17.7048C9.97727 17.821 10.2098 17.8801 10.4447 17.8801C10.5778 17.8801 10.7117 17.8611 10.843 17.8229C11.2062 17.717 11.5064 17.476 11.6884 17.1444C12.0639 16.4597 11.8125 15.5972 11.1279 15.2215L10.2074 14.7166C10.0644 14.6381 9.96041 14.5086 9.91478 14.352C9.86914 14.1953 9.88718 14.0303 9.96568 13.8872C10.0442 13.7442 10.1736 13.6402 10.3302 13.5946C10.4869 13.5491 10.6519 13.567 10.795 13.6455L12.6041 14.638C12.799 14.7449 13.0438 14.6736 13.1508 14.4786C13.2578 14.2836 13.1865 14.0389 12.9915 13.9319L11.9956 13.3855L12.3395 12.7586C12.4465 12.5636 12.3752 12.3189 12.1802 12.2119C11.9852 12.1048 11.7404 12.1762 11.6334 12.3712L11.2895 12.9981L11.1823 12.9393C10.8507 12.7573 10.468 12.7154 10.1048 12.8213C9.74162 12.9272 9.44142 13.1681 9.25951 13.4998L9.25946 13.4998Z" fill="#6E8091"/>
</svg>
