<svg width="24" height="24" viewBox="0 0 24 24" fill="none" xmlns="http://www.w3.org/2000/svg">
<path d="M6.9584 17.0006H5.12508C4.87208 17.0006 4.66675 16.7953 4.66675 16.5423C4.66675 16.2893 4.87208 16.084 5.12508 16.084H6.9584C7.2114 16.084 7.41673 16.2893 7.41673 16.5423C7.41673 16.7953 7.2114 17.0006 6.9584 17.0006Z" fill="#0077E5"/>
<path d="M21.8541 17H20.7083C20.4553 17 20.25 16.7946 20.25 16.5416C20.25 16.2886 20.4553 16.0833 20.7083 16.0833H21.4737L22.0916 12.7906C22.0833 11.1058 20.6441 9.66666 18.875 9.66666H15.8656L14.4072 16.0833H17.0417C17.2947 16.0833 17.5 16.2886 17.5 16.5416C17.5 16.7946 17.2947 17 17.0417 17H13.8333C13.694 17 13.562 16.9367 13.4749 16.8276C13.3878 16.7195 13.3548 16.5765 13.386 16.4408L15.0525 9.1075C15.1002 8.89758 15.2853 8.75 15.4998 8.75H18.875C21.1492 8.75 23 10.6007 23 12.875L22.3042 16.626C22.2639 16.8432 22.0751 17 21.8541 17Z" fill="#0077E5"/>
<path d="M18.8749 18.8333C17.6117 18.8333 16.5833 17.8057 16.5833 16.5417C16.5833 15.2776 17.6117 14.25 18.8749 14.25C20.1381 14.25 21.1666 15.2776 21.1666 16.5417C21.1666 17.8057 20.1381 18.8333 18.8749 18.8333ZM18.8749 15.1667C18.1168 15.1667 17.4999 15.7836 17.4999 16.5417C17.4999 17.2997 18.1168 17.9166 18.8749 17.9166C19.633 17.9166 20.2499 17.2997 20.2499 16.5417C20.2499 15.7836 19.633 15.1667 18.8749 15.1667Z" fill="#0077E5"/>
<path d="M8.79165 18.8333C7.52849 18.8333 6.5 17.8057 6.5 16.5417C6.5 15.2776 7.52849 14.25 8.79165 14.25C10.0548 14.25 11.0833 15.2776 11.0833 16.5417C11.0833 17.8057 10.0548 18.8333 8.79165 18.8333ZM8.79165 15.1667C8.03358 15.1667 7.41666 15.7836 7.41666 16.5417C7.41666 17.2997 8.03358 17.9166 8.79165 17.9166C9.54973 17.9166 10.1666 17.2997 10.1666 16.5417C10.1666 15.7836 9.54973 15.1667 8.79165 15.1667Z" fill="#0077E5"/>
<path d="M6.95823 8.75065H3.29158C3.03858 8.75065 2.83325 8.54531 2.83325 8.29232C2.83325 8.03932 3.03858 7.83398 3.29158 7.83398H6.95823C7.21123 7.83398 7.41656 8.03932 7.41656 8.29232C7.41656 8.54531 7.21123 8.75065 6.95823 8.75065Z" fill="#0077E5"/>
<path d="M6.95839 11.5006H2.37508C2.12208 11.5006 1.91675 11.2953 1.91675 11.0423C1.91675 10.7893 2.12208 10.584 2.37508 10.584H6.95839C7.21139 10.584 7.41672 10.7893 7.41672 11.0423C7.41672 11.2953 7.21139 11.5006 6.95839 11.5006Z" fill="#0077E5"/>
<path d="M6.9583 14.2506H1.45833C1.20533 14.2506 1 14.0453 1 13.7923C1 13.5393 1.20533 13.334 1.45833 13.334H6.9583C7.2113 13.334 7.41663 13.5393 7.41663 13.7923C7.41663 14.0453 7.2113 14.2506 6.9583 14.2506Z" fill="#0077E5"/>
<path d="M13.8334 16.9999H10.6251C10.3721 16.9999 10.1667 16.7946 10.1667 16.5416C10.1667 16.2886 10.3721 16.0833 10.6251 16.0833H13.4676L15.5503 6.91666H5.12508C4.87208 6.91666 4.66675 6.71133 4.66675 6.45833C4.66675 6.20533 4.87208 6 5.12508 6H16.125C16.2644 6 16.3964 6.06325 16.4834 6.17233C16.5705 6.2805 16.6035 6.4235 16.5724 6.55916L14.2807 16.6424C14.233 16.8524 14.0469 16.9999 13.8334 16.9999Z" fill="#0077E5"/>
</svg>
