<svg width="24" height="24" viewBox="0 0 24 24" fill="none" xmlns="http://www.w3.org/2000/svg">
<path d="M17.6569 6.34314C16.1459 4.83215 14.1368 4 12 4C9.86304 4 7.85413 4.83215 6.34314 6.34314C4.83215 7.85413 4 9.86304 4 12C4 14.1368 4.83215 16.1459 6.34314 17.6569C7.85413 19.1678 9.86304 20 12 20C14.1368 20 16.1459 19.1678 17.6569 17.6569C19.1678 16.1459 20 14.1368 20 12C20 9.86304 19.1678 7.85413 17.6569 6.34314ZM8.01062 17.8246C8.34521 15.8981 10.0146 14.4771 12 14.4771C13.9855 14.4771 15.6548 15.8981 15.9894 17.8246C14.8535 18.605 13.4792 19.0625 12 19.0625C10.5208 19.0625 9.14648 18.605 8.01062 17.8246ZM9.4563 10.9958C9.4563 9.59314 10.5974 8.45215 12 8.45215C13.4026 8.45215 14.5437 9.59326 14.5437 10.9958C14.5437 12.3984 13.4026 13.5396 12 13.5396C10.5974 13.5396 9.4563 12.3984 9.4563 10.9958ZM16.8014 17.1743C16.5491 16.2775 16.048 15.4637 15.3456 14.8281C14.9147 14.4381 14.4242 14.1304 13.8969 13.9135C14.85 13.2917 15.4813 12.2162 15.4813 10.9958C15.4813 9.07629 13.9196 7.51465 12 7.51465C10.0804 7.51465 8.5188 9.07629 8.5188 10.9958C8.5188 12.2162 9.15015 13.2917 10.1031 13.9135C9.57593 14.1304 9.08533 14.438 8.65442 14.828C7.95215 15.4636 7.45093 16.2773 7.19861 17.1742C5.80884 15.8835 4.9375 14.0417 4.9375 12C4.9375 8.10571 8.10571 4.9375 12 4.9375C15.8943 4.9375 19.0625 8.10571 19.0625 12C19.0625 14.0419 18.1912 15.8837 16.8014 17.1743Z" fill="#6E8091"/>
</svg>
