<svg width="24" height="24" viewBox="0 0 24 24" fill="none" xmlns="http://www.w3.org/2000/svg">
<path d="M18.4977 3.30536C18.1907 3.16399 17.8291 3.21896 17.578 3.4451L16.3862 4.50042L14.7647 3.04994C14.4389 2.75809 13.9457 2.75809 13.6199 3.04994L11.9997 4.49905L10.3791 3.04994C10.0533 2.75809 9.56005 2.75809 9.2342 3.04994L7.61224 4.50042L6.41929 3.44514C6.06728 3.13226 5.52826 3.16399 5.21538 3.516C5.0753 3.6736 4.99856 3.87753 5.00002 4.08838V19.9129C4.99723 20.3845 5.37732 20.7691 5.84896 20.7719C6.05985 20.7731 6.26379 20.6963 6.42143 20.5562L7.61327 19.5008L9.2348 20.9513C9.56057 21.2432 10.0538 21.2432 10.3795 20.9513L11.9997 19.502L13.6202 20.9511C13.946 21.2429 14.4393 21.2429 14.7651 20.9511L16.3871 19.5007L17.58 20.556C17.932 20.869 18.471 20.8373 18.7839 20.4854C18.9242 20.3277 19.0009 20.1237 18.9994 19.9127V4.08838C19.0037 3.75055 18.8064 3.44265 18.4977 3.30536ZM16.9543 18.8574C16.6285 18.5688 16.1381 18.5701 15.8138 18.8605L14.1924 20.3109L12.5721 18.8618C12.2463 18.57 11.7531 18.57 11.4273 18.8618L9.80684 20.3109L8.18467 18.8605C7.86166 18.5701 7.37211 18.5688 7.0475 18.8574L5.85888 19.9124V17.6233L5.85459 4.0886L7.04514 5.14366C7.37095 5.43228 7.86135 5.43099 8.18562 5.14061L9.8071 3.69017L11.4273 5.13928C11.7531 5.43112 12.2464 5.43112 12.5722 5.13928L14.1926 3.69017L15.8148 5.14061C16.1378 5.43095 16.6273 5.43228 16.952 5.14371L18.1406 4.08838V14.9664L18.1449 19.9125L16.9543 18.8574Z" fill="#6E8091"/>
<path d="M16.0698 11.5703H7.92845C7.69128 11.5703 7.49902 11.7626 7.49902 11.9997C7.49902 12.2369 7.69128 12.4292 7.92845 12.4292H16.0698C16.307 12.4292 16.4993 12.2369 16.4993 11.9997C16.4993 11.7626 16.307 11.5703 16.0698 11.5703Z" fill="#6E8091"/>
<path d="M12.205 8.99414H7.92845C7.69128 8.99414 7.49902 9.1864 7.49902 9.42357C7.49902 9.66074 7.69128 9.853 7.92845 9.853H12.205C12.4421 9.853 12.6344 9.66074 12.6344 9.42357C12.6344 9.1864 12.4421 8.99414 12.205 8.99414Z" fill="#6E8091"/>
<path d="M16.0698 14.1475H7.92845C7.69128 14.1475 7.49902 14.3397 7.49902 14.5769C7.49902 14.8141 7.69128 15.0063 7.92845 15.0063H16.0698C16.307 15.0063 16.4993 14.8141 16.4993 14.5769C16.4993 14.3397 16.307 14.1475 16.0698 14.1475Z" fill="#6E8091"/>
</svg>
