<svg width="24" height="24" viewBox="0 0 24 24" fill="none" xmlns="http://www.w3.org/2000/svg">
<path d="M20.249 6.00098V10.501H15.749" stroke="#858585" stroke-width="1.08" stroke-linecap="round" stroke-linejoin="round"/>
<path d="M3.75098 17.999V13.499H8.25098" stroke="#858585" stroke-width="1.08" stroke-linecap="round" stroke-linejoin="round"/>
<path d="M5.63348 9.75018C6.01385 8.67527 6.66033 7.71423 7.51258 6.95674C8.36483 6.19925 9.39508 5.67 10.5072 5.41837C11.6193 5.16674 12.777 5.20093 13.8724 5.51776C14.9677 5.83458 15.9649 6.42371 16.771 7.23018L20.251 10.5002M3.75098 13.5002L7.23098 16.7702C8.03704 17.5766 9.03426 18.1658 10.1296 18.4826C11.2249 18.7994 12.3826 18.8336 13.4948 18.582C14.6069 18.3304 15.6371 17.8011 16.4894 17.0436C17.3416 16.2861 17.9881 15.3251 18.3685 14.2502" stroke="#858585" stroke-width="1.08" stroke-linecap="round" stroke-linejoin="round"/>
<path d="M12 8.40039V15.6004" stroke="#858585" stroke-width="0.9" stroke-linecap="round" stroke-linejoin="round"/>
<path d="M13.5002 9.2998H11.2502C10.9717 9.2998 10.7046 9.41833 10.5077 9.62931C10.3108 9.84029 10.2002 10.1264 10.2002 10.4248C10.2002 10.7232 10.3108 11.0093 10.5077 11.2203C10.7046 11.4313 10.9717 11.5498 11.2502 11.5498H12.7502C13.0287 11.5498 13.2957 11.6683 13.4927 11.8793C13.6896 12.0903 13.8002 12.3764 13.8002 12.6748C13.8002 12.9732 13.6896 13.2593 13.4927 13.4703C13.2957 13.6813 13.0287 13.7998 12.7502 13.7998H10.2002" stroke="#858585" stroke-width="0.9" stroke-linecap="round" stroke-linejoin="round"/>
</svg>
