<svg width="25" height="27" viewBox="0 0 25 27" fill="none" xmlns="http://www.w3.org/2000/svg">
<path d="M23.5625 18.4165V8.5832C23.5621 8.1521 23.4483 7.7287 23.2325 7.35547C23.0168 6.98223 22.7067 6.67229 22.3333 6.45674L13.7292 1.54008C13.3555 1.32431 12.9315 1.21072 12.5 1.21072C12.0685 1.21072 11.6445 1.32431 11.2708 1.54008L2.66667 6.45674C2.29332 6.67229 1.98323 6.98223 1.76748 7.35547C1.55174 7.7287 1.43794 8.1521 1.4375 8.5832V18.4165C1.43794 18.8476 1.55174 19.271 1.76748 19.6443C1.98323 20.0175 2.29332 20.3274 2.66667 20.543L11.2708 25.4597C11.6445 25.6754 12.0685 25.789 12.5 25.789C12.9315 25.789 13.3555 25.6754 13.7292 25.4597L22.3333 20.543C22.7067 20.3274 23.0168 20.0175 23.2325 19.6443C23.4483 19.271 23.5621 18.8476 23.5625 18.4165Z" stroke="#6E8091" stroke-width="1.96667" stroke-linecap="round" stroke-linejoin="round"/>
<path d="M1.76941 7.30475L12.5 13.512L23.2307 7.30475" stroke="#6E8091" stroke-width="1.96667" stroke-linecap="round" stroke-linejoin="round"/>
<path d="M12.5 25.8898V13.4998" stroke="#6E8091" stroke-width="1.96667" stroke-linecap="round" stroke-linejoin="round"/>
</svg>
