<svg width="20" height="20" viewBox="0 0 20 20" fill="none" xmlns="http://www.w3.org/2000/svg">
    <g id="eye-off">
        <path d="M0.833252 10C0.833252 10 4.16659 3.33333 10 3.33333C15.8333 3.33333 19.1666 10 19.1666 10C19.1666 10 15.8333 16.6667 10 16.6667C4.16659 16.6667 0.833252 10 0.833252 10Z" stroke="#6E8091" stroke-width="1.2" stroke-linecap="round" stroke-linejoin="round"/>
        <path d="M7.5 7.5C7.073 7.927 6.77733 8.47048 6.64818 9.06282C6.51903 9.65516 6.56161 10.2659 6.77126 10.8292C6.98091 11.3925 7.34934 11.8871 7.83377 12.2537C8.3182 12.6204 8.89782 12.8433 9.50417 12.8988C10.1105 12.9542 10.7205 12.8403 11.2666 12.5688C11.8128 12.2972 12.2733 11.8785 12.5915 11.3598C12.9096 10.841 13.0731 10.2418 13.0636 9.63365C13.0541 9.02549 12.872 8.43165 12.5378 7.91773C12.2036 7.40382 11.7297 6.98776 11.1698 6.71623C10.6099 6.44469 9.98514 6.32814 9.36659 6.37916C8.74803 6.43018 8.15714 6.64791 7.64992 7.00833" stroke="#6E8091" stroke-width="1.2" stroke-linecap="round" stroke-linejoin="round"/>
        <path d="M3 3L17 17" stroke="#6E8091" stroke-width="1.2" stroke-linecap="round" stroke-linejoin="round"/>
    </g>
</svg>
