<svg width="60" height="61" viewBox="0 0 60 61" fill="none" xmlns="http://www.w3.org/2000/svg">
<path d="M52.5 46.4091C52.5 46.831 52.342 47.2357 52.0607 47.534C51.7794 47.8324 51.3978 48 51 48H9C8.60218 48 8.22064 47.8324 7.93934 47.534C7.65804 47.2357 7.5 46.831 7.5 46.4091C7.5 45.9872 7.65804 45.5825 7.93934 45.2841C8.22064 44.9858 8.60218 44.8182 9 44.8182H10.5V25.7273C10.5 24.8834 10.8161 24.0741 11.3787 23.4774C11.9413 22.8807 12.7044 22.5455 13.5 22.5455H21V16.1818C21 15.3379 21.3161 14.5286 21.8787 13.9319C22.4413 13.3352 23.2044 13 24 13H36C36.7957 13 37.5587 13.3352 38.1213 13.9319C38.6839 14.5286 39 15.3379 39 16.1818V30.5H46.5C47.2957 30.5 48.0587 30.8352 48.6213 31.4319C49.1839 32.0286 49.5 32.8379 49.5 33.6818V44.8182H51C51.3978 44.8182 51.7794 44.9858 52.0607 45.2841C52.342 45.5825 52.5 45.9872 52.5 46.4091ZM39 33.6818V44.8182H46.5V33.6818H39ZM24 44.8182H36V16.1818H24V44.8182ZM13.5 44.8182H21V25.7273H13.5V44.8182Z" fill="#6E8091"/>
</svg>
