<svg width="15" height="18" viewBox="0 0 15 18" fill="none" xmlns="http://www.w3.org/2000/svg">
<path d="M13.75 6.25H11.25V4.375C11.25 3.38044 10.8549 2.42661 10.1517 1.72335C9.44839 1.02009 8.49456 0.625 7.5 0.625C6.50544 0.625 5.55161 1.02009 4.84835 1.72335C4.14509 2.42661 3.75 3.38044 3.75 4.375V6.25H1.25C0.918479 6.25 0.600537 6.3817 0.366116 6.61612C0.131696 6.85054 0 7.16848 0 7.5V16.25C0 16.5815 0.131696 16.8995 0.366116 17.1339C0.600537 17.3683 0.918479 17.5 1.25 17.5H13.75C14.0815 17.5 14.3995 17.3683 14.6339 17.1339C14.8683 16.8995 15 16.5815 15 16.25V7.5C15 7.16848 14.8683 6.85054 14.6339 6.61612C14.3995 6.3817 14.0815 6.25 13.75 6.25ZM5 4.375C5 3.71196 5.26339 3.07607 5.73223 2.60723C6.20107 2.13839 6.83696 1.875 7.5 1.875C8.16304 1.875 8.79893 2.13839 9.26777 2.60723C9.73661 3.07607 10 3.71196 10 4.375V6.25H5V4.375ZM13.75 16.25H1.25V7.5H13.75V16.25ZM8.4375 11.875C8.4375 12.0604 8.38252 12.2417 8.2795 12.3958C8.17649 12.55 8.03007 12.6702 7.85877 12.7411C7.68746 12.8121 7.49896 12.8307 7.3171 12.7945C7.13525 12.7583 6.9682 12.669 6.83709 12.5379C6.70598 12.4068 6.61669 12.2398 6.58051 12.0579C6.54434 11.876 6.56291 11.6875 6.63386 11.5162C6.70482 11.3449 6.82498 11.1985 6.97915 11.0955C7.13332 10.9925 7.31458 10.9375 7.5 10.9375C7.74864 10.9375 7.9871 11.0363 8.16291 11.2121C8.33873 11.3879 8.4375 11.6264 8.4375 11.875Z" fill="#6E8091"/>
</svg>
