<svg width="20" height="20" viewBox="0 0 20 20" fill="none" xmlns="http://www.w3.org/2000/svg">
<g clip-path="url(#clip0_1691_254)">
<path fill-rule="evenodd" clip-rule="evenodd" d="M4.34315 15.6559C5.84344 17.1562 7.87827 17.999 10 17.999L10 13.4273C11.8934 13.4271 13.4283 11.8922 13.4283 9.99872C13.4283 8.10527 11.8934 6.57031 10 6.57015L10 1.99902C7.87826 1.99902 5.84343 2.84188 4.34314 4.34217C2.84285 5.84246 2 7.87729 2 9.99903C2 12.1208 2.84286 14.1556 4.34315 15.6559ZM10 6.57015C9.9999 6.57015 9.9998 6.57015 9.9997 6.57015C8.10615 6.57015 6.57113 8.10517 6.57113 9.99872C6.57113 11.8923 8.10615 13.4273 9.9997 13.4273C9.9998 13.4273 9.9999 13.4273 10 13.4273V9.99902L10 6.57015Z" fill="#6E8091"/>
<circle cx="10" cy="10.0005" r="8.66667" stroke="#6E8091" stroke-width="1.33333"/>
<path d="M9.99986 14.5716C11.2123 14.5716 12.375 14.0899 13.2323 13.2326C14.0897 12.3753 14.5713 11.2126 14.5713 10.0001C14.5713 8.78772 14.0897 7.62496 13.2323 6.76765C12.375 5.91034 11.2123 5.42871 9.99986 5.42871L9.99986 10.0001V14.5716Z" fill="#6E8091"/>
</g>
<defs>
<clipPath id="clip0_1691_254">
<rect width="20" height="20" fill="white"/>
</clipPath>
</defs>
</svg>
